<?xml version="1.0" encoding="UTF-8"?>
<svg id="Capa_1" data-name="Capa 1" xmlns="http://www.w3.org/2000/svg" viewBox="0 0 1000 1000">
  <defs>
    <style>
      .cls-1 {
        fill: #020202;
      }

      .cls-2 {
        fill: #fff;
      }

      .cls-3 {
        fill: #b8b8b6;
      }

      .cls-4 {
        fill: #929292;
      }

      .cls-5 {
        fill: #c4c3c1;
      }

      .cls-6 {
        fill: #cbcbcb;
      }

      .cls-7 {
        fill: #898886;
      }

      .cls-8 {
        fill: #dcdcdc;
      }

      .cls-9 {
        fill: #948e8e;
      }

      .cls-10 {
        fill: #feffff;
      }

      .cls-11 {
        fill: #fbfffe;
      }
    </style>
  </defs>
  <path class="cls-1" d="M526,851l65-95-3.89,47.5,164.89-219.5,127-94-120-146c22.36-25.15,32.25-48.9,37-64,6.54-20.81,7.43-38.27,9-69,1.26-24.75.75-45.4,0-60-25.98,2.09-61.47,7.76-101,23-32.35,12.47-58.06,27.75-77,41-21.27-8.44-58.12-19.95-105-19-43.94.89-78.38,12.34-99,21-17.6-12.74-40.58-26.92-69-39-42.92-18.24-81.85-24.71-109.75-27-.56,15.06-1.02,37.17-.25,64,.85,29.73,1.35,44.9,5,60,3.85,15.95,12.99,41.81,38,70-39,48.33-78,96.67-117,145,9.34,8,19,16.01,29,24,33.3,26.62,66.22,49.8,98,70l162,213,5-30,62,84Z"/>
  <polygon class="cls-8" points="526 807.29 526 742.59 454 665 352 614 448 739 454.34 710.65 526 807.29"/>
  <path class="cls-2" d="M408,578c22.24-19.56,39.35-35.16,51-45.93,9.09-8.4,16.38-15.24,28-22.6,15.18-9.61,29.28-14.67,39-17.46,8.81,1.71,22.56,5.4,37,14.38,16.74,10.42,23.11,20.87,43,40.07,8.05,7.77,20.05,18.64,36,30.55-14.5,11.15-31.8,22.95-52,34.17-14.03,7.8-27.49,14.22-40,19.52-16.26.78-43.67.05-75-11.3-32.81-11.89-55.01-30.02-67-41.39Z"/>
  <path class="cls-3" d="M408,578c10.33,12.83,20.67,25.65,31,38.48,4.84,6.53,11.97,14.72,22,22.52,7.58,5.9,14.88,10.06,21,13,6.11,3.38,13.81,7.01,23,10,8.24,2.68,15.78,4.23,22.17,5.14,6.84-.81,14.96-2.32,23.83-5.14,12.58-4,22.63-9.32,30-14,7.67-6,15.33-12,23-18,6-8.3,12-16.63,18-25,6.71-9.35,13.37-18.68,20-28-10.33,7-20.67,14-31,21l-42.53,23.07-84-1.48c-25.49-13.86-50.98-27.73-76.47-41.59Z"/>
  <path class="cls-2" d="M447,481c5.11-15.22-10.63-34.44-28-36-9.75-.87-21.81,3.65-26,13-6.53,14.55,7.69,37.05,26,39,11.23,1.2,24.4-5.29,28-16Z"/>
  <path class="cls-2" d="M662,475c1.98-11.15-4.14-23.03-14-28-15.07-7.59-36.65,2.11-40,19-2.41,12.15,5.1,25.52,17,30,15.56,5.87,34.19-5.13,37-21Z"/>
  <path class="cls-7" d="M401,608c-3.22-6.15-6.52-10.81-9-14-7.45-9.55-15.18-15.55-21-20-4.05-3.1-7.56-5.44-10-7l24-6c-16.2-3.89-37.78-10.88-61-24-19.25-10.88-34.14-22.86-45-33,2.33-.67,4.67-1.33,7-2l-24-12c53.33-27.33,106.67-54.67,160-82,31.67,19,63.33,38,95,57-.67-47-1.33-94-2-141,4.06-6.99,8.11-13.98,12.17-20.97l9.83,20.97,2,78-1.91,64.2c32.3-19.73,64.61-39.47,96.91-59.2,53,27.33,106,54.67,159,82-13.91,13.35-33.08,29.3-58,44-24.28,14.33-46.92,23.28-65,29l18.42,3-43.42,43-1,4.03,14-5.03c24.67-12.67,49.33-25.33,74-38,14.06-9.67,28.42-19.99,43-31,22.67-17.12,43.65-34.22,63-51-9.9-10.42-20.87-21.17-33-32-20.2-18.03-39.98-33.05-58.35-45.52,11.45,2.84,22.9,5.68,34.35,8.52h9l-86-88c-10.61-9.21-22.58-18.68-36-28-27.1-18.83-53.23-32.29-76-42-1.67-3.33-3.33-6.67-5-10,2.36.4,7.27.91,13-1s9.35-5.27,11-7c-5.62-1.59-11.66-3.56-18-6-5.02-1.93-9.69-3.96-14-6-10-2.25-21.76-4.17-35-5-10.24-.64-19.64-.52-28,0-10.52.23-23.07,1.26-37,4-13.59,2.67-25.34,6.33-35,10-2.33,1-4.67,2-7,3l25,17c-13.04,5.11-27.17,11.35-42,19-14.08,7.26-26.74,14.73-38,22-11,8.67-22,17.33-33,26-17,16.67-34,33.33-51,50l-36.58,42.52h14l27.67-11.15c-19.41,13.41-40.11,29.46-61.09,48.63-9.7,8.87-18.69,17.7-27,26.37v4c19.75,18.51,43.31,38.26,71,57.63,41.5,29.04,81.22,49.49,115,64Z"/>
  <path class="cls-10" d="M386,279c13.67-7.33,27.33-14.67,41-22-6.67-5-13.33-10-20-15-14.33-9.67-28.67-19.33-43-29-14.87-6.48-32.61-12.94-53-18-13.22-3.28-25.64-5.51-37-7-.84,12.3-1.06,26.43,0,42,1.1,16.15,3.37,30.59,6,43,1.87,7.57,5.12,17.42,11,28,7.51,13.51,16.39,22.99,23,29l12-15c-4.67-6.33-9.33-12.67-14-19-4.14-10-8.49-23.17-11-39-2.06-12.98-2.38-24.54-2-34,10.6,2.26,23.3,5.92,37,12,20.78,9.23,36.38,20.7,47.09,30,1.3,2.33,2.61,4.67,3.91,7-.33,2.33-.67,4.67-1,7Z"/>
  <path class="cls-11" d="M620,257c15.33-10.67,30.67-21.33,46-32,11.97-7.37,27-15.29,45-22,24.98-9.32,47.56-13.3,65-15,.68,9.31,1.06,19.34,1,30-.07,11.82-.69,22.86-1.64,33.02-1.24,6.97-3.21,15.11-6.36,23.98-3.33,9.36-7.2,17.28-10.83,23.69-7.58,10.44-15.17,20.87-22.75,31.31l-10.42-13c4.81-4.74,10.99-11.97,16-22,2.93-5.86,4.79-11.35,6-16,2.14-7.42,4.2-16.9,5-28,.82-11.36.1-21.23-1-29-13.9,3.91-29.48,9.35-46,17-9.09,4.21-17.42,8.61-25,13-3.7,2.37-12.33,8.67-16,20-1.07,3.32-1.51,6.4-1.63,9.03-14.12-8.01-28.25-16.02-42.37-24.03Z"/>
  <polygon class="cls-2" points="542 451 542 433.31 610 344 625.59 344 774 411 745 408 803 460 803 466.2 742 436 762 456 761 460 633 399 542 451"/>
  <path class="cls-2" d="M510,452c.75-1.47,1.75-3.88,2-7,.38-4.73-1.18-8.37-2-10-8.8-13.76-18.75-28.18-30-43-14.54-19.15-29.09-36.11-43-51-51.8,21.33-103.61,42.67-155.41,64-2.37,2.24-5.41,4.76-9.17,7.19-4.19,2.7-8.13,4.54-11.42,5.81,5.31-.69,11-1.66,17-3,8.93-1.99,16.96-4.44,24-7-14.76,10.07-30.64,21.98-47,36-15.16,12.99-28.45,25.84-40,38v5c10.67.33,21.33.67,32,1,30.79-18.43,64.46-36.99,101-55,24.71-12.18,48.77-23.13,72-33,12.96,4.9,27.56,11.38,43,20,18.9,10.55,34.51,21.77,47,32Z"/>
  <path d="M490,565h74.25c2.13,2.45,6.26,7.9,7.75,16,2.11,11.48-2.54,20.42-4,23l-15,18c-8.33,4.67-16.67,9.33-25,14-6.81-2.53-17.48-7.46-28-17-9.16-8.3-14.75-16.97-18-23-.34-3.62-.41-8.89,1-15,1.69-7.32,4.78-12.74,7-16Z"/>
  <path class="cls-2" d="M500,576h49c.26.54,2.19,4.8,0,9-1.22,2.33-3.11,3.52-4,4h-39.41c-3.17-.72-5.7-3.01-6.59-6-1.05-3.56.7-6.52,1-7Z"/>
  <path class="cls-4" d="M314,330c-7.5-6.25-12.65-12.41-16-17-3.07-4.21-1.26-2.48-8-13-1.13-1.76-3.57-5.54-5-11-1.24-4.74-.39-5.7,0-6,1.49-1.15,4.68.8,5,1,1.67,1,3.33,2,5,3,.74,1.58,5.53,11.47,15,13,1.36.22,3.04.3,5,0,4,4.67,8,9.33,12,14l-13,16Z"/>
  <path class="cls-6" d="M386,279c.33-2.33.67-4.67,1-7-1.33-2.33-2.67-4.67-4-7-5.82-4.37-12.15-8.74-19-13-23.2-14.41-45.73-23.33-65-29v-9.63c12.41,2.27,28.1,6.49,45,14.63,4.14,2,13.22,6.57,24,14,14.8,10.19,25.64,20.8,33,29-5,2.67-10,5.33-15,8Z"/>
  <path class="cls-2" d="M469,262c8.56-2.82,17.56-5.51,27-8,4.06-1.07,8.06-2.07,12-3-5.67-2.33-11.33-4.67-17-7-4.12-1.17-8.8-2.24-14-3-7.95-1.16-15.07-1.29-21-1,6.94-2.57,14.98-5.05,24-7,13.21-2.86,25.11-3.85,35-4h34.09l29.91,5,4,2c-5.01,2.13-11.04,4.28-18,6-6.66,1.64-12.75,2.54-18,3-2,1.33-4,2.67-6,4,11.67,4.67,23.33,9.33,35,14-13.82-2.93-31.87-5.44-53-5-20.78.43-38.45,3.58-52,7-.67-1-1.33-2-2-3Z"/>
  <path class="cls-5" d="M645,271c5.79,3.34,11.58,6.69,17.37,10.03.1-2.24.46-5.43,1.63-9.03,2.47-7.59,8.84-17.89,41-33,11.39-5.35,26.86-11.7,46-17,2-2.67,4-5.33,6-8-9.5.78-21.57,2.66-35,7-15.25,4.93-27.31,11.44-36,17-11.55,7.39-20.86,15.37-32,25-3.79,3.28-6.88,6.06-9,8Z"/>
  <path class="cls-9" d="M777,208c-8.33,7.67-16.67,15.33-25,23,.22,4.24.33,9.68,0,16-.6,11.43-2.36,20.04-3,23-1.71,7.91-3.41,15.77-8,25-2.77,5.56-7.62,13.7-16,22,3.47,4.33,6.95,8.67,10.42,13,5.01-5.65,10.33-12.3,15.58-20,6.32-9.27,11.21-18.12,15-26,2.12-4.89,4.22-10.58,6-17,1.35-4.87,2.31-9.44,3-13.63.91-6.56,1.62-13.7,2-21.37.43-8.64.36-16.68,0-24Z"/>
</svg>